<svg width="56" height="360" viewBox="0 0 56 360" xmlns="http://www.w3.org/2000/svg">
<circle cx="7" cy="6.0" r="4.92" fill="#D94300"/>
<circle cx="21" cy="6.0" r="4.92" fill="#D94300"/>
<circle cx="35" cy="6.0" r="4.92" fill="#D94300"/>
<circle cx="49" cy="6.0" r="4.92" fill="#D94300"/>
<circle cx="0" cy="18.0" r="4.75" fill="#D94300"/>
<circle cx="14" cy="18.0" r="4.75" fill="#D94300"/>
<circle cx="28" cy="18.0" r="4.75" fill="#D94300"/>
<circle cx="42" cy="18.0" r="4.75" fill="#D94300"/>
<circle cx="7" cy="30.0" r="4.58" fill="#D94300"/>
<circle cx="21" cy="30.0" r="4.58" fill="#D94300"/>
<circle cx="35" cy="30.0" r="4.58" fill="#D94300"/>
<circle cx="49" cy="30.0" r="4.58" fill="#D94300"/>
<circle cx="0" cy="42.0" r="4.42" fill="#D94300"/>
<circle cx="14" cy="42.0" r="4.42" fill="#D94300"/>
<circle cx="28" cy="42.0" r="4.42" fill="#D94300"/>
<circle cx="42" cy="42.0" r="4.42" fill="#D94300"/>
<circle cx="7" cy="54.0" r="4.25" fill="#D94300"/>
<circle cx="21" cy="54.0" r="4.25" fill="#D94300"/>
<circle cx="35" cy="54.0" r="4.25" fill="#D94300"/>
<circle cx="49" cy="54.0" r="4.25" fill="#D94300"/>
<circle cx="0" cy="66.0" r="4.08" fill="#D94300"/>
<circle cx="14" cy="66.0" r="4.08" fill="#D94300"/>
<circle cx="28" cy="66.0" r="4.08" fill="#D94300"/>
<circle cx="42" cy="66.0" r="4.08" fill="#D94300"/>
<circle cx="7" cy="78.0" r="3.92" fill="#D94300"/>
<circle cx="21" cy="78.0" r="3.92" fill="#D94300"/>
<circle cx="35" cy="78.0" r="3.92" fill="#D94300"/>
<circle cx="49" cy="78.0" r="3.92" fill="#D94300"/>
<circle cx="0" cy="90.0" r="3.75" fill="#D94300"/>
<circle cx="14" cy="90.0" r="3.75" fill="#D94300"/>
<circle cx="28" cy="90.0" r="3.75" fill="#D94300"/>
<circle cx="42" cy="90.0" r="3.75" fill="#D94300"/>
<circle cx="7" cy="102.0" r="3.58" fill="#D94300"/>
<circle cx="21" cy="102.0" r="3.58" fill="#D94300"/>
<circle cx="35" cy="102.0" r="3.58" fill="#D94300"/>
<circle cx="49" cy="102.0" r="3.58" fill="#D94300"/>
<circle cx="0" cy="114.0" r="3.42" fill="#D94300"/>
<circle cx="14" cy="114.0" r="3.42" fill="#D94300"/>
<circle cx="28" cy="114.0" r="3.42" fill="#D94300"/>
<circle cx="42" cy="114.0" r="3.42" fill="#D94300"/>
<circle cx="7" cy="126.0" r="3.25" fill="#D94300"/>
<circle cx="21" cy="126.0" r="3.25" fill="#D94300"/>
<circle cx="35" cy="126.0" r="3.25" fill="#D94300"/>
<circle cx="49" cy="126.0" r="3.25" fill="#D94300"/>
<circle cx="0" cy="138.0" r="3.08" fill="#D94300"/>
<circle cx="14" cy="138.0" r="3.08" fill="#D94300"/>
<circle cx="28" cy="138.0" r="3.08" fill="#D94300"/>
<circle cx="42" cy="138.0" r="3.08" fill="#D94300"/>
<circle cx="7" cy="150.0" r="2.92" fill="#D94300"/>
<circle cx="21" cy="150.0" r="2.92" fill="#D94300"/>
<circle cx="35" cy="150.0" r="2.92" fill="#D94300"/>
<circle cx="49" cy="150.0" r="2.92" fill="#D94300"/>
<circle cx="0" cy="162.0" r="2.75" fill="#D94300"/>
<circle cx="14" cy="162.0" r="2.75" fill="#D94300"/>
<circle cx="28" cy="162.0" r="2.75" fill="#D94300"/>
<circle cx="42" cy="162.0" r="2.75" fill="#D94300"/>
<circle cx="7" cy="174.0" r="2.58" fill="#D94300"/>
<circle cx="21" cy="174.0" r="2.58" fill="#D94300"/>
<circle cx="35" cy="174.0" r="2.58" fill="#D94300"/>
<circle cx="49" cy="174.0" r="2.58" fill="#D94300"/>
<circle cx="0" cy="186.0" r="2.42" fill="#D94300"/>
<circle cx="14" cy="186.0" r="2.42" fill="#D94300"/>
<circle cx="28" cy="186.0" r="2.42" fill="#D94300"/>
<circle cx="42" cy="186.0" r="2.42" fill="#D94300"/>
<circle cx="7" cy="198.0" r="2.25" fill="#D94300"/>
<circle cx="21" cy="198.0" r="2.25" fill="#D94300"/>
<circle cx="35" cy="198.0" r="2.25" fill="#D94300"/>
<circle cx="49" cy="198.0" r="2.25" fill="#D94300"/>
<circle cx="0" cy="210.0" r="2.08" fill="#D94300"/>
<circle cx="14" cy="210.0" r="2.08" fill="#D94300"/>
<circle cx="28" cy="210.0" r="2.08" fill="#D94300"/>
<circle cx="42" cy="210.0" r="2.08" fill="#D94300"/>
<circle cx="7" cy="222.0" r="1.92" fill="#D94300"/>
<circle cx="21" cy="222.0" r="1.92" fill="#D94300"/>
<circle cx="35" cy="222.0" r="1.92" fill="#D94300"/>
<circle cx="49" cy="222.0" r="1.92" fill="#D94300"/>
<circle cx="0" cy="234.0" r="1.75" fill="#D94300"/>
<circle cx="14" cy="234.0" r="1.75" fill="#D94300"/>
<circle cx="28" cy="234.0" r="1.75" fill="#D94300"/>
<circle cx="42" cy="234.0" r="1.75" fill="#D94300"/>
<circle cx="7" cy="246.0" r="1.58" fill="#D94300"/>
<circle cx="21" cy="246.0" r="1.58" fill="#D94300"/>
<circle cx="35" cy="246.0" r="1.58" fill="#D94300"/>
<circle cx="49" cy="246.0" r="1.58" fill="#D94300"/>
<circle cx="0" cy="258.0" r="1.42" fill="#D94300"/>
<circle cx="14" cy="258.0" r="1.42" fill="#D94300"/>
<circle cx="28" cy="258.0" r="1.42" fill="#D94300"/>
<circle cx="42" cy="258.0" r="1.42" fill="#D94300"/>
<circle cx="7" cy="270.0" r="1.25" fill="#D94300"/>
<circle cx="21" cy="270.0" r="1.25" fill="#D94300"/>
<circle cx="35" cy="270.0" r="1.25" fill="#D94300"/>
<circle cx="49" cy="270.0" r="1.25" fill="#D94300"/>
<circle cx="0" cy="282.0" r="1.08" fill="#D94300"/>
<circle cx="14" cy="282.0" r="1.08" fill="#D94300"/>
<circle cx="28" cy="282.0" r="1.08" fill="#D94300"/>
<circle cx="42" cy="282.0" r="1.08" fill="#D94300"/>
<circle cx="7" cy="294.0" r="0.92" fill="#D94300"/>
<circle cx="21" cy="294.0" r="0.92" fill="#D94300"/>
<circle cx="35" cy="294.0" r="0.92" fill="#D94300"/>
<circle cx="49" cy="294.0" r="0.92" fill="#D94300"/>
<circle cx="0" cy="306.0" r="0.75" fill="#D94300"/>
<circle cx="14" cy="306.0" r="0.75" fill="#D94300"/>
<circle cx="28" cy="306.0" r="0.75" fill="#D94300"/>
<circle cx="42" cy="306.0" r="0.75" fill="#D94300"/>
<circle cx="7" cy="318.0" r="0.58" fill="#D94300"/>
<circle cx="21" cy="318.0" r="0.58" fill="#D94300"/>
<circle cx="35" cy="318.0" r="0.58" fill="#D94300"/>
<circle cx="49" cy="318.0" r="0.58" fill="#D94300"/>
</svg>
