<svg width="841" height="620" viewBox="0 0 841 620" preserveAspectRatio="none" fill="none" xmlns="http://www.w3.org/2000/svg">
<g clip-path="url(#clip0_10_3671)">
<path d="M654.61 48.13L769.4 -67.09L723.56 -112.77L674.62 -161.52L674.56 -161.58L579.78 -256L465 -140.77L559.79 -46.35L559.83 -46.29L638.75 32.33L654.61 48.13Z" stroke="#ECECEF" stroke-miterlimit="10"/>
<path d="M87.97 806.73L151.19 743.26L231.89 662.26L137.1 567.84L31.84 673.5L-6.81 712.3L87.97 806.73Z" stroke="#ECECEF" stroke-miterlimit="10"/>
<path d="M511.118 192.542L655.027 48.0796L560.241 -46.3424L416.332 98.1203L511.118 192.542Z" stroke="#ECECEF" stroke-miterlimit="10"/>
<path d="M416.28 98.04V98.03L558 -44.22L560.19 -46.42L465.41 -140.84L438.65 -113.98L321.5 3.61005L416.28 98.04Z" stroke="#ECECEF" stroke-miterlimit="10"/>
<path d="M252.424 452.221L396.333 307.759L301.548 213.337L157.639 357.799L252.424 452.221Z" stroke="#ECECEF" stroke-miterlimit="10"/>
<path d="M-6.38615 712.381L137.523 567.919L42.7376 473.497L-101.171 617.959L-6.38615 712.381Z" stroke="#ECECEF" stroke-miterlimit="10"/>
<path d="M62.6139 263.061L206.523 118.599L111.738 24.1766L-32.1714 168.639L62.6139 263.061Z" stroke="#ECECEF" stroke-miterlimit="10"/>
<path d="M157.59 357.73L220.81 294.26L301.51 213.26L206.72 118.84L101.46 224.5L62.81 263.3L157.59 357.73Z" stroke="#ECECEF" stroke-miterlimit="10"/>
<path d="M-101.22 617.89L-38 554.42L42.7 473.42L-52.09 379L-157.35 484.66L-196 523.46L-101.22 617.89Z" stroke="#ECECEF" stroke-miterlimit="10"/>
<path d="M-32.22 168.57L31 105.1L111.7 24.1L16.91 -70.3201L-88.35 35.34L-127 74.14L-32.22 168.57Z" stroke="#ECECEF" stroke-miterlimit="10"/>
<path d="M396.33 307.74L511.12 192.52L465.28 146.84L416.34 98.0901L416.28 98.0301L321.5 3.61011L206.72 118.84L301.51 213.26L301.55 213.32L380.47 291.94L396.33 307.74Z" stroke="#ECECEF" stroke-miterlimit="10"/>
<path d="M206.52 118.58L321.31 3.35992L275.47 -42.3201L226.53 -91.0701L226.47 -91.1301L131.69 -185.55L16.91 -70.3201L111.7 24.1L111.74 24.16L190.66 102.78L206.52 118.58Z" stroke="#ECECEF" stroke-miterlimit="10"/>
<path d="M890.118 570.542L1034.03 426.08L939.241 331.658L795.332 476.12L890.118 570.542Z" stroke="#ECECEF" stroke-miterlimit="10"/>
<path d="M700.307 381.382L844.217 236.919L749.431 142.497L605.522 286.96L700.307 381.382Z" stroke="#ECECEF" stroke-miterlimit="10"/>
<path d="M795.28 476.04V476.03L937 333.78L939.19 331.58L844.41 237.16L817.65 264.02L700.5 381.61L795.28 476.04Z" stroke="#ECECEF" stroke-miterlimit="10"/>
<path d="M605.47 286.88V286.87L747.19 144.62L749.38 142.42L654.6 48L627.84 74.86L510.69 192.45L605.47 286.88Z" stroke="#ECECEF" stroke-miterlimit="10"/>
<path d="M631.424 830.221L775.333 685.759L680.548 591.337L536.639 735.799L631.424 830.221Z" stroke="#ECECEF" stroke-miterlimit="10"/>
<path d="M441.614 641.061L585.523 496.599L490.738 402.177L346.829 546.639L441.614 641.061Z" stroke="#ECECEF" stroke-miterlimit="10"/>
<path d="M536.59 735.73L599.81 672.26L680.51 591.26L585.72 496.84L480.46 602.5L441.81 641.3L536.59 735.73Z" stroke="#ECECEF" stroke-miterlimit="10"/>
<path d="M346.78 546.57L410 483.1L490.7 402.1L395.91 307.68L290.65 413.34L252 452.14L346.78 546.57Z" stroke="#ECECEF" stroke-miterlimit="10"/>
<path d="M775.33 685.74L890.12 570.52L844.28 524.84L795.34 476.09L795.28 476.03L700.5 381.61L585.72 496.84L680.51 591.26L680.55 591.32L759.47 669.94L775.33 685.74Z" stroke="#ECECEF" stroke-miterlimit="10"/>
<path d="M585.52 496.58L700.31 381.36L654.47 335.68L605.53 286.93L605.47 286.87L510.69 192.45L395.91 307.68L490.7 402.1L490.74 402.16L569.66 480.78L585.52 496.58Z" stroke="#ECECEF" stroke-miterlimit="10"/>
<path d="M326.61 756.13L441.4 640.91L395.56 595.23L346.62 546.48L346.56 546.42L251.78 452L137 567.23L231.79 661.65L231.83 661.71L310.75 740.33L326.61 756.13Z" stroke="#ECECEF" stroke-miterlimit="10"/>
<path d="M843.8 236.97L958.59 121.75L912.75 76.0698L863.81 27.3198L863.75 27.2598L768.97 -67.1602L654.19 48.0698L748.98 142.49L749.02 142.55L827.94 221.17L843.8 236.97Z" stroke="#ECECEF" stroke-miterlimit="10"/>
<path d="M137.42 567.29L252.21 452.07L206.37 406.39L157.43 357.64L157.37 357.58L62.59 263.16L-52.19 378.39L42.6 472.81L42.64 472.87L121.56 551.49L137.42 567.29Z" stroke="#ECECEF" stroke-miterlimit="10"/>
<path d="M-52.39 378.13L62.4 262.91L16.56 217.23L-32.38 168.48L-32.44 168.42L-127.22 74L-242 189.23L-147.21 283.65L-147.17 283.71L-68.25 362.33L-52.39 378.13Z" stroke="#ECECEF" stroke-miterlimit="10"/>
</g>
<defs>
<clipPath id="clip0_10_3671">
<rect width="841" height="620" fill="white"/>
</clipPath>
</defs>
</svg>
