<?xml version="1.0" encoding="utf-8"?>
<!-- Generator: Adobe Illustrator 28.0.0, SVG Export Plug-In . SVG Version: 6.00 Build 0)  -->
<svg version="1.1" id="Layer_1" xmlns="http://www.w3.org/2000/svg" xmlns:xlink="http://www.w3.org/1999/xlink" x="0px" y="0px"
	 viewBox="55.0 160.0 682.5 247.0" style="enable-background:new 0 0 792 612;" xml:space="preserve">
<defs><clipPath id="navCrop"><rect x="55" y="160" width="682.5" height="247"/></clipPath></defs><g clip-path="url(#navCrop)">
	<g>
		<path d="M259.19,435.87l3.42-14.15l2.98-13.51c0.04-0.2,0.2-0.3,0.38-0.3h8.46c6.86,0,10.21,4.15,8.91,9.82
			c-1.09,4.7-5.2,7.59-11.6,7.59h-6.34l-2.35,10.63c-0.04,0.2-0.18,0.3-0.36,0.3h-3.2C259.27,436.25,259.15,436.11,259.19,435.87z
			 M272.03,422.5c4.37,0,6.88-1.96,7.61-5.1c0.85-3.73-0.95-6.66-5.47-6.66h-5.31l-2.83,11.76H272.03z"/>
		<path d="M281.55,435.87l2.49-10.39l2.17-9.78c0.04-0.2,0.2-0.3,0.38-0.3h3.12c0.22,0,0.34,0.14,0.28,0.38l-2.33,9.68l-2.33,10.49
			c-0.04,0.2-0.18,0.3-0.36,0.3h-3.12C281.63,436.25,281.51,436.11,281.55,435.87z M287.02,412.32l0.75-3.22
			c0.04-0.2,0.18-0.3,0.38-0.3h3.06c0.24,0,0.36,0.16,0.3,0.38l-0.75,3.22c-0.04,0.2-0.18,0.3-0.38,0.3h-3.06
			C287.08,412.7,286.96,412.56,287.02,412.32z"/>
		<path d="M290.6,424.26c1.11-4.84,4.76-9.29,10.85-9.29c4.88,0,8.2,2.83,8.26,7.23c0,0.22-0.12,0.34-0.34,0.34h-2.81
			c-0.22,0-0.34-0.12-0.34-0.34c-0.14-2.98-2.07-4.64-4.96-4.64c-3.95,0-6.14,3.42-6.95,6.95c-0.93,4.05-0.4,9.6,4.92,9.6
			c2.83,0,5.1-1.5,6.2-5.04c0.06-0.2,0.2-0.28,0.38-0.28h2.85c0.22,0,0.34,0.16,0.26,0.41c-1.46,4.96-4.96,7.51-9.76,7.51
			C291.23,436.7,289.23,430.13,290.6,424.26z"/>
		<path d="M309.34,435.89l3.28-13.69l3.1-13.99c0.04-0.2,0.18-0.3,0.38-0.3h3.04c0.22,0,0.34,0.14,0.28,0.38l-3.73,15.55l9.42-8.28
			c0.14-0.1,0.26-0.16,0.43-0.16h3.89c0.3,0,0.41,0.22,0.16,0.42l-8.44,7.11l4.74,12.92c0.08,0.24-0.02,0.41-0.26,0.41h-3.14
			c-0.2,0-0.32-0.08-0.38-0.28l-0.97-3l-2.81-7.74l-3.6,3.18l-1.66,7.55c-0.04,0.2-0.18,0.3-0.38,0.3h-3.02
			C309.4,436.27,309.28,436.13,309.34,435.89z"/>
		<path d="M327.87,435.87l3.36-13.97l3.02-13.69c0.04-0.2,0.2-0.3,0.38-0.3h3.04c0.22,0,0.34,0.14,0.28,0.38l-3.26,13.57
			l-3.14,14.09c-0.04,0.2-0.18,0.3-0.36,0.3h-3.02C327.94,436.25,327.81,436.11,327.87,435.87z"/>
		<path d="M336.85,424.28c1.11-4.88,4.8-9.31,10.85-9.31c6.03,0,9.62,4.43,8.24,11c-0.04,0.22-0.16,0.3-0.36,0.3h-15.41
			c-0.45,3.85,0.69,7.86,5.45,7.86c2.83,0,5.06-1.28,6.14-4.5c0.08-0.18,0.2-0.26,0.41-0.26h2.81c0.24,0,0.36,0.14,0.28,0.38
			c-1.42,4.64-4.9,6.92-9.66,6.92C337.54,436.67,335.47,430.16,336.85,424.28z M352.52,423.8c0.57-3.62-1.38-6.3-5-6.3
			c-3.85,0-6.03,2.94-6.92,6.3H352.52z"/>
		<path d="M360.67,432.3l-0.75,3.62c-0.04,0.18-0.18,0.3-0.38,0.3h-3.06c-0.22,0-0.34-0.14-0.3-0.38l3.79-15.73l2.61-11.91
			c0.04-0.2,0.2-0.3,0.38-0.3h3.1c0.22,0,0.34,0.14,0.28,0.38l-2.33,9.76c1.62-1.8,3.71-2.98,6.28-2.98c6.03,0,8.3,5.63,6.84,11.87
			c-1.21,5.26-4.7,9.62-10.1,9.62C363.58,436.55,361.56,434.83,360.67,432.3z M373.44,426.81c1.11-4.84-0.04-9.19-4.25-9.19
			c-3.62,0-6.1,3.36-7.09,7.59c-1.03,4.5-0.16,8.79,4.31,8.79C370.28,434,372.51,430.72,373.44,426.81z"/>
		<path d="M379.5,424.69c1.24-5.26,4.72-9.62,10.12-9.62c3.42,0,5.41,1.78,6.3,4.29l0.79-3.67c0.04-0.2,0.16-0.3,0.36-0.3h3.06
			c0.24,0,0.34,0.14,0.3,0.38l-2.39,9.88l-2.27,10.29c-0.04,0.2-0.18,0.3-0.38,0.3h-2.94c-0.22,0-0.34-0.14-0.28-0.38l0.63-2.51
			c-1.64,1.92-3.81,3.2-6.44,3.2C380.31,436.55,378.05,430.92,379.5,424.69z M394.53,426.41c1.03-4.5,0.16-8.79-4.31-8.79
			c-3.87,0-6.09,3.28-7.03,7.19c-1.11,4.84,0.06,9.19,4.25,9.19C391.09,434,393.54,430.64,394.53,426.41z"/>
		<path d="M399.21,435.87l3.36-13.97l3.02-13.69c0.04-0.2,0.2-0.3,0.38-0.3h3.04c0.22,0,0.34,0.14,0.28,0.38l-3.26,13.57
			l-3.14,14.09c-0.04,0.2-0.18,0.3-0.36,0.3h-3.02C399.27,436.25,399.15,436.11,399.21,435.87z"/>
		<path d="M406.55,435.87l3.36-13.97l3.02-13.69c0.04-0.2,0.2-0.3,0.38-0.3h3.04c0.22,0,0.34,0.14,0.28,0.38l-3.26,13.57
			l-3.14,14.09c-0.04,0.2-0.18,0.3-0.36,0.3h-3.02C406.61,436.25,406.48,436.11,406.55,435.87z"/>
		<path d="M421.82,424.28c1.11-4.88,4.8-9.31,10.85-9.31c6.03,0,9.62,4.43,8.24,11c-0.04,0.22-0.16,0.3-0.37,0.3h-15.41
			c-0.45,3.85,0.69,7.86,5.45,7.86c2.83,0,5.06-1.28,6.14-4.5c0.08-0.18,0.2-0.26,0.4-0.26h2.81c0.24,0,0.37,0.14,0.28,0.38
			c-1.42,4.64-4.9,6.92-9.66,6.92C422.51,436.67,420.44,430.16,421.82,424.28z M437.49,423.8c0.57-3.62-1.38-6.3-5-6.3
			c-3.85,0-6.03,2.94-6.92,6.3H437.49z"/>
		<path d="M443.19,424.69c1.24-5.26,4.72-9.62,10.12-9.62c3.44,0,5.43,1.76,6.28,4.29l2.45-11.16c0.04-0.2,0.18-0.3,0.36-0.3h3.1
			c0.24,0,0.37,0.14,0.3,0.38L462,424.32l-2.57,11.62c-0.04,0.2-0.18,0.3-0.36,0.3h-2.92c-0.22,0-0.34-0.14-0.28-0.38l0.65-2.51
			c-1.66,1.92-3.81,3.2-6.46,3.2C444,436.55,441.73,430.92,443.19,424.69z M458.21,426.41c1.03-4.5,0.16-8.79-4.31-8.79
			c-3.87,0-6.09,3.28-7.03,7.19c-1.11,4.84,0.06,9.19,4.25,9.19C454.77,434,457.22,430.64,458.21,426.41z"/>
		<path d="M462.92,435.87l2.49-10.39l2.17-9.78c0.04-0.2,0.2-0.3,0.38-0.3h3.12c0.22,0,0.34,0.14,0.28,0.38l-2.33,9.68l-2.33,10.49
			c-0.04,0.2-0.18,0.3-0.36,0.3h-3.12C463,436.25,462.88,436.11,462.92,435.87z M468.38,412.32l0.75-3.22
			c0.04-0.2,0.18-0.3,0.38-0.3h3.06c0.24,0,0.37,0.16,0.3,0.38l-0.75,3.22c-0.04,0.2-0.18,0.3-0.38,0.3h-3.06
			C468.44,412.7,468.32,412.56,468.38,412.32z"/>
		<path d="M473.04,430.54l2.9-12.43h-2.31c-0.22,0-0.36-0.14-0.3-0.38l0.47-2.02c0.04-0.2,0.18-0.3,0.38-0.3h2.37l1.07-4.92
			c0.04-0.2,0.2-0.3,0.38-0.3h3.12c0.22,0,0.34,0.14,0.28,0.38l-1.17,4.84h4.76c0.22,0,0.34,0.14,0.3,0.38l-0.49,2.02
			c-0.04,0.2-0.18,0.3-0.36,0.3h-4.86l-2.83,12.35c-0.55,2.39,0.1,3.36,1.9,3.36c0.69,0,1.46-0.08,2.07-0.22
			c0.26-0.06,0.41,0.06,0.34,0.32l-0.43,1.86c-0.04,0.18-0.14,0.28-0.28,0.32c-0.91,0.26-2.04,0.47-3.1,0.47
			C474.42,436.57,471.99,435.06,473.04,430.54z"/>
		<path d="M483.01,435.87l2.49-10.39l2.17-9.78c0.04-0.2,0.2-0.3,0.38-0.3h3.12c0.22,0,0.34,0.14,0.28,0.38l-2.33,9.68l-2.33,10.49
			c-0.04,0.2-0.18,0.3-0.37,0.3h-3.12C483.09,436.25,482.97,436.11,483.01,435.87z M488.47,412.32l0.75-3.22
			c0.04-0.2,0.18-0.3,0.38-0.3h3.06c0.24,0,0.37,0.16,0.3,0.38l-0.75,3.22c-0.04,0.2-0.18,0.3-0.38,0.3h-3.06
			C488.54,412.7,488.41,412.56,488.47,412.32z"/>
		<path d="M492.04,424.36c1.24-5.24,5.14-9.4,11-9.4c6.95,0,10.04,5.73,8.5,12.31c-1.24,5.24-5.12,9.39-10.97,9.39
			C493.62,436.67,490.5,430.95,492.04,424.36z M507.81,427.02c1.17-4.98-0.3-9.5-4.9-9.5c-3.85,0-6.22,3.16-7.15,7.11
			c-1.17,4.98,0.3,9.5,4.92,9.5C504.51,434.12,506.88,430.96,507.81,427.02z"/>
		<path d="M511.93,435.87l2.23-9.09l2.47-11.08c0.04-0.2,0.18-0.3,0.38-0.3h2.92c0.24,0,0.36,0.14,0.3,0.38l-0.81,3.28
			c1.5-2.25,4.15-4.15,7.27-4.15c4.09,0,6.88,3,5.61,8.5l-0.89,3.93l-1.92,8.61c-0.04,0.2-0.18,0.3-0.37,0.3h-3.1
			c-0.22,0-0.34-0.14-0.28-0.38l1.98-8.18l0.87-3.99c0.91-3.99-0.59-5.97-3.38-5.97c-3.18,0-5.43,2.94-6.8,6.28l-0.87,3.73
			l-1.8,8.22c-0.04,0.2-0.18,0.3-0.36,0.3h-3.14C512.01,436.25,511.89,436.11,511.93,435.87z"/>
	</g>
	<g>
		<g>
			<path d="M171.96,275.47l0.87-53.9l-0.87-53.9c0-1.11,0.56-1.67,1.59-1.67h47.62c22.7,0,39.53,8.25,39.53,27.46
				c0,13.33-6.98,20.95-19.21,24.61c14.92,3.33,22.23,13.18,22.23,25.4c0,24.13-20.48,33.66-41.75,33.66h-48.42
				C172.52,277.13,171.96,276.58,171.96,275.47z M221.49,210.77c9.37,0,15.08-4.76,15.08-13.81c0-9.84-6.83-14.13-15.08-14.13
				h-24.84l-0.79,27.94H221.49z M221.49,260.3c10,0,17.78-3.81,17.78-16.83c0-11.75-8.1-15.87-17.78-15.87h-25.64l0.79,32.7H221.49z
				"/>
			<path d="M269.07,232.96c0-25.71,14.84-46.42,39-46.42c11.04,0,19.67,3.97,25.71,11.22l-0.43-7.68c-0.09-1.21,0.6-1.81,1.81-1.81
				h22.52c1.21,0,1.81,0.6,1.81,1.81l-0.69,42.71l0.69,42.53c0,1.21-0.6,1.81-1.81,1.81h-22.43c-1.12,0-1.72-0.69-1.72-1.81
				l0.26-8.54c-6.21,7.59-15.01,12.08-26.23,12.08C282.36,278.86,269.07,258.84,269.07,232.96z M334.3,233.3
				c0.17-18.98-6.56-29.33-18.98-29.51c-13.11-0.35-19.84,9.49-19.84,27.78c0,20.02,6.9,30.2,19.33,30.02
				C327.4,261.6,334.12,252.11,334.3,233.3z"/>
			<path d="M377.61,251.08l0.17-44.52h-9.75c-1.12,0-1.81-0.69-1.81-1.81v-14.67c0-1.21,0.69-1.81,1.81-1.81h9.66l-0.26-20.45
				c0-1.21,0.69-1.81,1.81-1.81h22.6c1.21,0,1.81,0.61,1.81,1.81l-0.17,20.45h19.41c1.21,0,1.81,0.69,1.81,1.81v14.67
				c0,1.12-0.69,1.81-1.81,1.81h-19.59l0.17,43.83c0,7.59,3.79,10.01,9.49,10.01c3.97,0,6.99-0.6,9.58-1.38
				c1.21-0.35,1.98,0.35,1.98,1.55v13.29c0,1.04-0.43,1.64-1.38,1.98c-5,1.73-10.7,3.02-16.22,3.02
				C391.93,278.86,377.61,271.26,377.61,251.08z"/>
			<path d="M439.99,251.08l0.17-44.52h-9.75c-1.12,0-1.81-0.69-1.81-1.81v-14.67c0-1.21,0.69-1.81,1.81-1.81h9.66l-0.26-20.45
				c0-1.21,0.69-1.81,1.81-1.81h22.6c1.21,0,1.81,0.61,1.81,1.81l-0.17,20.45h19.41c1.21,0,1.81,0.69,1.81,1.81v14.67
				c0,1.12-0.69,1.81-1.81,1.81H465.7l0.17,43.83c0,7.59,3.79,10.01,9.49,10.01c3.97,0,6.99-0.6,9.58-1.38
				c1.21-0.35,1.98,0.35,1.98,1.55v13.29c0,1.04-0.43,1.64-1.38,1.98c-5,1.73-10.7,3.02-16.22,3.02
				C454.31,278.86,439.99,271.26,439.99,251.08z"/>
			<path d="M495.21,275.47l0.78-53.9l-0.78-53.9c0-1.11,0.6-1.67,1.72-1.67h22.26c1.21,0,1.81,0.56,1.81,1.67l-0.87,53.9l0.87,53.9
				c0,1.11-0.61,1.67-1.81,1.67h-22.26C495.82,277.13,495.21,276.58,495.21,275.47z"/>
			<path d="M529.89,232.96c0-28.3,16.91-46.93,45.21-46.93c29.16,0,45.29,19.24,45.9,50.04c0,1.21-0.6,1.9-1.81,1.9h-63.24
				c1.04,16.82,7.59,24.16,20.02,24.16c8.63,0,14.75-3.36,17.17-11.73c0.35-1.03,1.04-1.55,2.07-1.55h21.31
				c1.12,0,1.9,0.43,1.81,1.21c-2.07,15.53-17.69,29.33-42.71,29.33C545.94,279.37,529.89,259.88,529.89,232.96z M593.05,221.57
				c-1.03-9.49-6.38-18.46-17.77-18.46c-10.44,0-16.48,6.21-18.64,18.46H593.05z"/>
		</g>
		<g>
			<path d="M61.1,355.09c-0.1-1.47,0.73-2.2,2.1-2.2h26.35c1.37,0,2.1,0.73,2.2,2.2c0.84,11.13,8.72,16.07,23.42,16.07
				c12.39,0,19.11-4.83,19.11-13.23c0-20.58-70.77-0.63-70.77-45.99c0-22.47,18.06-34.44,47.25-34.44
				c28.25,0,47.36,10.82,49.46,32.55c0.11,1.47-0.73,2.31-2.2,2.31h-24.99c-1.37,0-2.1-0.73-2.42-2.1
				c-1.58-8.4-7.56-13.65-20.26-13.65c-10.29,0-16.8,3.78-16.8,13.02c0,20.58,70.77-0.42,70.77,45.57
				c0,22.68-21.42,35.49-50.19,35.49C83.37,390.69,62.26,378.4,61.1,355.09z"/>
			<path d="M226.19,344.44c0-25.71,14.84-46.42,39-46.42c11.04,0,19.67,3.97,25.71,11.21l-0.43-7.68c-0.09-1.21,0.6-1.81,1.81-1.81
				h22.52c1.21,0,1.81,0.6,1.81,1.81l-0.69,42.71l0.69,42.53c0,1.21-0.6,1.81-1.81,1.81h-22.43c-1.12,0-1.72-0.69-1.72-1.81
				l0.26-8.54c-6.21,7.59-15.01,12.08-26.23,12.08C239.48,390.34,226.19,370.33,226.19,344.44z M291.42,344.79
				c0.17-18.98-6.56-29.33-18.98-29.51c-13.11-0.35-19.84,9.49-19.84,27.78c0,20.02,6.9,30.2,19.33,30.02
				C284.52,373.09,291.24,363.6,291.42,344.79z"/>
			<path d="M326.71,386.81l0.6-42.71l-0.6-42.53c0-1.21,0.6-1.81,1.73-1.81h22.26c1.12,0,1.81,0.6,1.73,1.81l-0.6,13.2
				c6.9-10.53,18.81-15.7,31.75-15.7c1.29,0,2.67,0.09,3.97,0.35c1.04,0.17,1.55,0.95,1.55,1.98v15.62c0,1.12-0.69,1.73-1.9,1.64
				c-0.95-0.09-1.98-0.09-2.93-0.09c-18.29,0-31.84,10.18-31.75,30.54l0.17,37.7c0,1.12-0.6,1.81-1.81,1.81h-22.43
				C327.31,388.62,326.71,388.01,326.71,386.81z"/>
			<path d="M457.85,356.18v-18.64l-0.52-35.98c0-1.21,0.69-1.81,1.81-1.81h22.6c1.21,0,1.81,0.6,1.81,1.81l-0.52,35.98v18.29
				c0,9.66,5.87,15.87,13.63,15.87c9.32,0,19.33-8.63,19.33-27.61v-6.56l-0.34-35.98c0-1.21,0.69-1.81,1.81-1.81h22.95
				c1.21,0,1.81,0.6,1.81,1.81l-0.69,40.81l0.35,44.43c0,1.12-0.6,1.81-1.81,1.81h-21.31c-1.21,0-1.81-0.6-1.81-1.9l0.43-9.32
				c-6.04,7.77-16.22,13.29-28.64,13.29C469.93,390.69,457.85,377.92,457.85,356.18z"/>
			<path d="M552.41,416.14l0.69-63.59l-0.6-50.99c0-1.21,0.6-1.81,1.73-1.81h22.6c1.12,0,1.81,0.6,1.72,1.81l-0.43,8.54
				c6.21-7.59,15.01-12.08,26.23-12.08c25.19,0,38.48,20.02,38.48,45.9c0,25.71-14.84,46.42-39,46.42c-10.7,0-19.24-3.8-25.28-10.79
				l0.43,36.58c0,1.21-0.6,1.81-1.81,1.81h-22.95C553.1,417.95,552.41,417.35,552.41,416.14z M616.43,345.31
				c0-19.67-6.73-29.68-19.33-29.68s-19.33,9.49-19.5,27.95c-0.17,18.81,6.56,29.33,18.98,29.33
				C609.7,372.91,616.43,363.42,616.43,345.31z"/>
			<path d="M647.06,361.44c-0.08-1.21,0.6-1.81,1.73-1.81h21.65c1.12,0,1.73,0.6,1.81,1.81c0.69,9.15,7.16,13.2,19.24,13.2
				c10.18,0,15.7-3.97,15.7-10.87c0-16.91-58.15-0.52-58.15-37.79c0-18.46,14.84-28.3,38.82-28.3c23.21,0,38.91,8.89,40.64,26.75
				c0.09,1.21-0.6,1.9-1.81,1.9h-20.53c-1.12,0-1.73-0.6-1.99-1.73c-1.29-6.9-6.21-11.21-16.65-11.21c-8.46,0-13.8,3.1-13.8,10.7
				c0,16.91,58.15-0.35,58.15,37.44c0,18.64-17.6,29.16-41.24,29.16C665.35,390.69,648.01,380.59,647.06,361.44z"/>
			<path d="M448.96,299.75h-19.41l0.11-13.1h-26.07l0.17,13.1h-9.66c-1.12,0-1.81,0.6-1.81,1.81v14.67c0,1.12,0.69,1.81,1.81,1.81
				h9.75l-0.17,44.52c0,20.19,14.32,27.78,29.34,27.78c5.52,0,11.21-1.29,16.22-3.02c0.95-0.34,1.38-0.95,1.38-1.98v-13.29
				c0-1.21-0.78-1.9-1.98-1.55c-2.59,0.78-5.61,1.38-9.58,1.38c-5.7,0-9.49-2.42-9.49-10.01l-0.17-43.83h19.59
				c1.12,0,1.81-0.69,1.81-1.81v-14.67C450.77,300.44,450.17,299.75,448.96,299.75z"/>
			<path d="M222.22,299.75h-19.41l0.11-13.1h-26.07l0.17,13.1h-9.66c-1.12,0-1.81,0.6-1.81,1.81v14.67c0,1.12,0.69,1.81,1.81,1.81
				h9.75l-0.17,44.52c0,20.19,14.32,27.78,29.34,27.78c5.52,0,11.21-1.29,16.22-3.02c0.95-0.34,1.38-0.95,1.38-1.98v-13.29
				c0-1.21-0.78-1.9-1.98-1.55c-2.59,0.78-5.61,1.38-9.58,1.38c-5.69,0-9.49-2.42-9.49-10.01l-0.17-43.83h19.59
				c1.12,0,1.81-0.69,1.81-1.81v-14.67C224.03,300.44,223.43,299.75,222.22,299.75z"/>
		</g>
		<g>
			<path d="M631.46,268.65c0-6.54,3.87-10.85,10.57-10.85c6.7,0,10.49,4.19,10.49,10.73c0,6.54-3.79,10.85-10.49,10.85
				C635.32,279.37,631.46,275.19,631.46,268.65z M646.37,268.65c0-4.63-1.44-6.86-4.39-6.86c-3.03,0.04-4.43,2.27-4.43,6.9
				c0,4.63,1.48,6.7,4.47,6.7C644.97,275.39,646.37,273.35,646.37,268.65z"/>
			<path d="M655.88,278.44l0.18-8.63v-7.26h-2.69c-0.26,0-0.42-0.16-0.42-0.42v-3.39c0-0.28,0.16-0.42,0.42-0.42h2.69v-1.36
				c0-4.67,3.27-6.42,6.7-6.42c1.24,0,2.69,0.18,3.69,0.34c0.26,0.04,0.38,0.2,0.38,0.44v3.33c0,0.28-0.18,0.42-0.46,0.36
				c-0.58-0.14-1.3-0.2-2.21-0.2c-1.32,0-2.23,0.64-2.23,2.71v0.8h4.49c0.28,0,0.42,0.16,0.42,0.42v3.39c0,0.26-0.16,0.42-0.42,0.42
				h-4.49v7.26l0.2,8.63c0,0.28-0.14,0.42-0.42,0.42h-5.42C656.02,278.86,655.88,278.72,655.88,278.44z"/>
			<path d="M676.98,272.83l0.04-10.29h-2.25c-0.26,0-0.42-0.16-0.42-0.42v-3.39c0-0.28,0.16-0.42,0.42-0.42H677l-0.06-4.73
				c0-0.28,0.16-0.42,0.42-0.42h5.22c0.28,0,0.42,0.14,0.42,0.42l-0.04,4.73h4.49c0.28,0,0.42,0.16,0.42,0.42v3.39
				c0,0.26-0.16,0.42-0.42,0.42h-4.53l0.04,10.13c0,1.75,0.88,2.31,2.19,2.31c0.92,0,1.61-0.14,2.21-0.32
				c0.28-0.08,0.46,0.08,0.46,0.36v3.07c0,0.24-0.1,0.38-0.32,0.46c-1.16,0.4-2.47,0.7-3.75,0.7
				C680.29,279.26,676.98,277.5,676.98,272.83z"/>
			<path d="M689.58,278.44l0.18-13.58l-0.18-13.5c0-0.28,0.14-0.42,0.4-0.42h5.14c0.28,0,0.42,0.14,0.42,0.42l-0.14,9.25
				c1.44-1.83,3.51-2.77,6.24-2.77c4.63,0,7.46,2.75,7.34,8.77l-0.04,4.39l0.16,7.44c0,0.28-0.14,0.42-0.42,0.42h-5.3
				c-0.26,0-0.42-0.14-0.4-0.42l0.14-7.36l-0.04-5.18c-0.04-2.47-1.4-3.67-3.03-3.67c-1.93,0-4.05,1.56-4.69,4.53l0.18,11.68
				c0,0.28-0.14,0.42-0.42,0.42h-5.14C689.72,278.86,689.58,278.72,689.58,278.44z"/>
			<path d="M710.81,268.65c0-6.54,3.91-10.85,10.45-10.85c6.74,0,10.47,4.45,10.61,11.56c0,0.28-0.14,0.44-0.42,0.44h-14.62
				c0.24,3.89,1.75,5.58,4.63,5.58c1.99,0,3.41-0.78,3.97-2.71c0.08-0.24,0.24-0.36,0.48-0.36h4.93c0.26,0,0.44,0.1,0.42,0.28
				c-0.48,3.59-4.09,6.78-9.87,6.78C714.52,279.37,710.81,274.87,710.81,268.65z M725.41,266.02c-0.24-2.19-1.48-4.27-4.11-4.27
				c-2.41,0-3.81,1.44-4.31,4.27H725.41z"/>
		</g>
	</g>
</g>
</svg>
